PathFileType	4	(X/Y/Z)	output.trc
DataRate	CameraRate	NumFrames	NumMarkers	Units	OrigDataRate	OrigDataStartFrame	OrigNumFrames
128	128	12	47	mm	128	1092	2911
Frame#	Time	C7			LSHO			RSHO			CLAV			T10			LUPA			RELB			LELB			LFRA			RFRA			RWRB			RWRA			RFIN			LWRB			LWRA			LFIN			RASI			LASI			RPSI			LPSI			RANK			LANK			LMMA			LHEE			LTOE			RMMA			RHEE			RTOE			RMT5			LMT5			RKNE			LKNE			LMFC			RMFC			RFM2			LFM2			RTP2			RTP3			RTA3			LTP2			LTP3			LTA3			LBHD			RBHD			RFHD			RGTR			LGTR			
		X1	Y1	Z1	X2	Y2	Z2	X3	Y3	Z3	X4	Y4	Z4	X5	Y5	Z5	X6	Y6	Z6	X7	Y7	Z7	X8	Y8	Z8	X9	Y9	Z9	X10	Y10	Z10	X11	Y11	Z11	X12	Y12	Z12	X13	Y13	Z13	X14	Y14	Z14	X15	Y15	Z15	X16	Y16	Z16	X17	Y17	Z17	X18	Y18	Z18	X19	Y19	Z19	X20	Y20	Z20	X21	Y21	Z21	X22	Y22	Z22	X23	Y23	Z23	X24	Y24	Z24	X25	Y25	Z25	X26	Y26	Z26	X27	Y27	Z27	X28	Y28	Z28	X29	Y29	Z29	X30	Y30	Z30	X31	Y31	Z31	X32	Y32	Z32	X33	Y33	Z33	X34	Y34	Z34	X35	Y35	Z35	X36	Y36	Z36	X37	Y37	Z37	X38	Y38	Z38	X39	Y39	Z39	X40	Y40	Z40	X41	Y41	Z41	X42	Y42	Z42	X43	Y43	Z43	X44	Y44	Z44	X45	Y45	Z45	X46	Y46	Z46	X47	Y47	Z47	
1092	8.52344	1552.71495	1523.35679	1542.40377	1482.07936	1249.78397	1462.83211	1127.48876	1154.03641	1019.91909	1013.30441	865.43021	883.22919	787.28887	881.11133	898.97896	800.41127	1087.79241	1059.14405	1125.26611	1123.43384	71.23835	71.51933	70.31481	42.38581	31.64865	68.59660	44.49579	35.33689	22.99284	28.06777	504.42724	506.56402	525.91965	519.11945	666.11244	668.50848	308.68131	366.90456	334.38172	297.11843	330.99573	322.09531	1439.49184	1839.49184	1469.49184	1439.49184	1839.49184	1609.49184	1639.49184	1839.49184	1609.49184	865.43021	881.11133	
1093	8.53125	1552.63996	1523.21515	1542.51745	1482.28221	1249.45384	1462.86331	1127.58541	1153.76268	1019.91189	1013.57824	865.84274	883.72737	787.89525	881.14339	898.91976	800.34020	1087.87537	1059.40468	1125.03482	1123.25282	71.26558	71.48948	70.50226	42.38168	31.64204	68.61154	44.53697	35.19842	22.99565	27.73600	504.37979	506.51106	525.95626	519.07069	666.05529	668.47133	308.53545	367.04728	334.55208	297.10447	330.80521	322.08221	1439.45752	1839.45752	1469.45752	1439.45752	1839.45752	1609.45752	1639.45752	1839.45752	1609.45752	865.84274	881.14339	
1094	8.53906	1552.59556	1522.86922	1542.62401	1482.63132	1249.25277	1463.16833	1127.68099	1153.48810	1019.86750	1013.87756	866.21608	884.27715	788.41847	881.20908	898.95198	800.35588	1087.94091	1059.51256	1124.84628	1123.01745	71.32054	71.52056	70.41448	42.38886	31.61593	68.62191	44.59317	35.18564	22.94504	27.68591	504.31817	506.52129	526.00437	519.09578	666.02043	668.37919	308.44857	366.94744	334.56852	297.09223	330.86874	322.04027	1439.36293	1839.36293	1469.36293	1439.36293	1839.36293	1609.36293	1639.36293	1839.36293	1609.36293	866.21608	881.20908	
1095	8.54688	1552.53123	1522.70598	1542.73395	1483.01347	1248.87361	1463.11281	1127.78802	1153.20489	1019.85303	1014.17260	866.62798	884.75012	788.85616	881.25879	898.91679	800.47650	1087.96579	1059.63291	1124.66020	1122.83467	71.35857	71.50373	70.32162	42.35923	31.67412	68.61257	44.59797	35.22722	22.96509	27.90789	504.18142	506.62676	526.08589	519.10120	666.06696	668.40750	308.55662	366.89247	334.72106	297.21436	331.02759	322.05748	1439.32372	1839.32372	1469.32372	1439.32372	1839.32372	1609.32372	1639.32372	1839.32372	1609.32372	866.62798	881.25879	
1096	8.55469	1552.38648	1522.46407	1542.82917	1483.34507	1248.67247	1462.92281	1127.90608	1152.90408	1019.86498	1014.46838	866.94053	885.18481	789.33746	881.30409	899.04926	800.57929	1087.99364	1059.89325	1124.48425	1122.71613	71.34844	71.48255	70.45027	42.35599	31.66920	68.63132	44.65564	35.18137	22.99832	27.97615	504.20217	506.60939	526.09839	519.06856	665.89584	668.31419	308.40674	366.88236	334.54769	297.17638	330.92212	322.04050	1439.22657	1839.22657	1469.22657	1439.22657	1839.22657	1609.22657	1639.22657	1839.22657	1609.22657	866.94053	881.30409	
1097	8.56250	1552.37748	1522.43193	1542.93888	1483.89179	1248.39807	1462.88506	1128.04783	1152.63182	1019.80978	1014.77194	867.28648	885.65064	789.96633	881.36937	899.14350	800.81297	1087.97228	1060.04789	1124.29827	1122.51498	71.42770	71.49566	70.32681	42.34091	31.67406	68.59306	44.65486	35.16851	22.95635	27.82095	504.17285	506.59822	526.13824	519.06384	665.80051	667.84500	308.43990	366.90459	334.64911	297.18045	330.95738	322.20449	1439.24943	1839.24943	1469.24943	1439.24943	1839.24943	1609.24943	1639.24943	1839.24943	1609.24943	867.28648	881.36937	
1098	8.57031	1552.29933	1522.18156	1542.98492	1483.82707	1248.17754	1462.66377	1128.17756	1152.36833	1019.79554	1015.06786	867.65304	886.05718	790.44182	881.42825	899.23609	801.00505	1088.04163	1060.18022	1124.08871	1122.34993	71.42642	71.48784	70.48029	42.30871	31.69307	68.57276	44.77238	35.18205	22.93295	27.76494	504.16828	506.63565	526.18289	519.06908	665.74595	667.83365	308.71347	367.03306	334.53645	297.31562	331.25559	322.22189	1439.15527	1839.15527	1469.15527	1439.15527	1839.15527	1609.15527	1639.15527	1839.15527	1609.15527	867.65304	881.42825	
1099	8.57812	1552.22569	1522.02168	1543.04790	1484.45625	1247.94535	1462.56962	1128.27589	1152.09457	1019.73818	1015.28622	867.96668	886.52144	790.91761	881.46655	899.24919	801.23132	1088.16517	1060.35109	1123.95995	1122.27002	71.45386	71.50620	70.39383	42.31530	31.70074	68.57132	44.73823	35.17021	22.94136	27.78161	504.14190	506.67436	526.25052	519.10896	665.36295	667.89110	308.47360	367.04937	334.78658	297.40725	331.26254	322.31268	1439.09842	1839.09842	1469.09842	1439.09842	1839.09842	1609.09842	1639.09842	1839.09842	1609.09842	867.96668	881.46655	
1100	8.58594	1552.12524	1521.82917	1543.12642	1484.52026	1247.76534	1462.36490	1128.32733	1151.77607	1019.62963	1015.60893	868.31972	886.83471	791.26251	881.39510	899.27182	801.46503	1088.20785	1060.39321	1123.78565	1122.07658	71.45571	71.43220	70.42671	42.26707	31.73997	68.53359	44.81434	35.15605	22.93126	27.67393	504.02430	506.61412	526.28633	519.07371	665.64088	668.40908	308.48660	366.94777	334.60591	297.24061	330.97218	322.12453	1439.02695	1839.02695	1469.02695	1439.02695	1839.02695	1609.02695	1639.02695	1839.02695	1609.02695	868.31972	881.39510	
1101	8.59375	1552.02726	1521.63914	1543.17142	1484.55190	1247.50738	1462.12774	1128.38898	1151.46371	1019.58194	1015.88141	868.70913	887.23352	791.62598	881.36021	899.37189	801.72508	1088.24221	1060.58049	1123.63805	1121.91646	71.49898	71.42671	70.44469	42.27550	31.70134	68.54609	44.81033	35.21431	22.97734	27.66842	503.93000	506.62826	526.33309	519.10222	665.59547	667.69303	308.75467	366.83467	334.57505	297.27625	330.87351	322.22672	1438.94594	1838.94594	1468.94594	1438.94594	1838.94594	1608.94594	1638.94594	1838.94594	1608.94594	868.70913	881.36021	
1102	8.60156	1551.97129	1521.39989	1543.20559	1484.34580	1247.33503	1462.09508	1128.41488	1151.15011	1019.41038	1016.10305	869.01804	887.53258	792.02718	881.30058	899.48173	801.91598	1088.27996	1060.66773	1123.46107	1121.75542	71.50543	71.38908	70.24417	42.26648	31.71740	68.52484	44.82237	35.15724	22.96399	27.63271	503.88256	506.59836	526.34468	519.12916	665.57330	667.82192	308.49360	366.66264	334.21534	297.36819	330.93944	322.34588	1438.85892	1838.85892	1468.85892	1438.85892	1838.85892	1608.85892	1638.85892	1838.85892	1608.85892	869.01804	881.30058	
1103	8.60938	1551.93624	1521.19077	1543.22697	1484.54613	1247.00900	1461.94738	1128.40208	1150.84106	1019.25374	1016.30320	869.29177	887.75328	792.36109	881.22816	899.46145	802.17394	1088.27883	1060.81690	1123.31328	1121.60526	71.59369	71.39232	70.10024	42.22525	31.75384	68.53140	44.86937	35.15466	22.95531	27.65534	503.94007	506.79522	526.35359	519.07995	665.55585	667.90596	308.51471	366.77254	334.18746	297.50808	331.16301	322.36938	1438.78466	1838.78466	1468.78466	1438.78466	1838.78466	1608.78466	1638.78466	1838.78466	1608.78466	869.29177	881.22816	
